<?xml version="1.0" encoding="utf-8"?>
<!-- Generator: Adobe Illustrator 20.0.0, SVG Export Plug-In . SVG Version: 6.00 Build 0)  -->
<svg version="1.1" id="Capa_1" xmlns="http://www.w3.org/2000/svg" xmlns:xlink="http://www.w3.org/1999/xlink" x="0px" y="0px"
	 width="61.4px" height="48px" viewBox="0 0 61.4 48" style="enable-background:new 0 0 61.4 48;" xml:space="preserve">
<style type="text/css">
	.st0{fill:#FFFFFF;}
</style>
<g>
	<path class="st0" d="M61.2,21.4L54.7,2.8C54.1,1.1,52.5,0,50.8,0c-0.5,0-0.9,0.1-1.4,0.2L30.7,6.7c-1,0.4-1.9,1.1-2.4,2.1
		c-0.5,1-0.5,2.1-0.2,3.2l6.5,18.7c0.6,1.7,2.2,2.8,3.9,2.8c0.5,0,0.9-0.1,1.4-0.2l18.7-6.5c1-0.4,1.9-1.1,2.4-2.1
		C61.5,23.6,61.6,22.5,61.2,21.4z M37,14.9c-1.3,0.4-2.7-0.2-3.1-1.5s0.2-2.7,1.5-3.1c1.3-0.4,2.7,0.2,3.1,1.5
		C38.9,13.1,38.2,14.5,37,14.9z M41.4,27.6c-1.3,0.4-2.7-0.2-3.1-1.5c-0.4-1.3,0.2-2.7,1.5-3.1s2.7,0.2,3.1,1.5
		C43.3,25.7,42.6,27.1,41.4,27.6z M49.6,10.5c-1.3,0.4-2.7-0.2-3.1-1.5c-0.4-1.3,0.2-2.7,1.5-3.1c1.3-0.4,2.7,0.2,3.1,1.5
		S50.9,10,49.6,10.5z M54,23.2c-1.3,0.4-2.7-0.2-3.1-1.5c-0.4-1.3,0.2-2.7,1.5-3.1c1.3-0.4,2.7,0.2,3.1,1.5
		C56,21.3,55.3,22.7,54,23.2z"/>
	<path class="st0" d="M23.9,19.9H4.1c-2.3,0-4.1,1.9-4.1,4.1v19.8C0,46.1,1.9,48,4.1,48h19.8c2.3,0,4.1-1.9,4.1-4.1V24.1
		C28.1,21.8,26.2,19.9,23.9,19.9z M7.3,43.1c-1.3,0-2.4-1.1-2.4-2.4c0-1.3,1.1-2.4,2.4-2.4s2.4,1.1,2.4,2.4
		C9.8,42,8.7,43.1,7.3,43.1z M7.3,29.7c-1.3,0-2.4-1.1-2.4-2.4s1.1-2.4,2.4-2.4s2.4,1.1,2.4,2.4C9.8,28.6,8.7,29.7,7.3,29.7z
		 M14,36.8c-1.3,0-2.4-1.1-2.4-2.4c0-1.3,1.1-2.4,2.4-2.4s2.4,1.1,2.4,2.4C16.5,35.7,15.4,36.8,14,36.8z M20.7,43.1
		c-1.3,0-2.4-1.1-2.4-2.4c0-1.3,1.1-2.4,2.4-2.4s2.4,1.1,2.4,2.4C23.2,42,22.1,43.1,20.7,43.1z M20.7,29.7c-1.3,0-2.4-1.1-2.4-2.4
		s1.1-2.4,2.4-2.4s2.4,1.1,2.4,2.4C23.2,28.6,22.1,29.7,20.7,29.7z"/>
</g>
</svg>
