<?xml version="1.0" encoding="UTF-8"?>
<svg width="85px" height="28px" viewBox="0 0 85 28" version="1.1" xmlns="http://www.w3.org/2000/svg" xmlns:xlink="http://www.w3.org/1999/xlink">
    <!-- Generator: Sketch 48.2 (47327) - http://www.bohemiancoding.com/sketch -->
    <title>Group</title>
    <desc>Created with Sketch.</desc>
    <defs></defs>
    <g id="Graffino-Visual-Identity---Delivery" stroke="none" stroke-width="1" fill="none" fill-rule="evenodd" transform="translate(-151.000000, -515.000000)">
        <g id="Group" transform="translate(151.000000, 515.000000)" fill="#FFFFFF">
            <path d="M13.3794643,11.5423103 C13.0513049,11.5423103 12.832589,11.6879398 12.7232025,11.9428769 C12.613873,12.2705719 12.4679485,12.670968 12.3221379,13.1807852 C11.19202,15.8022884 8.16619298,19.5162977 5.0309226,19.5162977 C3.31756214,19.5162977 2.66130041,18.3875831 2.66130041,16.7491081 C2.66130041,11.8336263 8.71306827,2.11185642 12.9419754,2.11185642 C13.9991311,2.11185642 14.3636577,2.69437478 14.3636577,3.49556489 C14.3636577,4.95197447 13.0877861,7.136532 12.4679485,7.50071966 C12.2492326,7.53709864 12.1398461,7.68272823 12.1398461,7.82841466 C12.1398461,8.04691589 12.4315243,8.33811822 12.9419754,8.33811822 C14.6189117,8.33811822 16.7333937,6.00781742 16.7333937,4.04159059 C16.7333937,1.52933806 13.0877861,0 11.1190578,0 C6.34338916,0 0,8.77506384 0,15.3290206 C0,19.115731 2.33319799,22.0650997 5.28611969,22.0650997 C7.47350704,22.0650997 9.80670503,20.3536962 11.3743687,17.5136919 C10.8274934,19.8803716 10.3170992,22.4656663 10.3170992,23.7399537 C10.3170992,25.1599843 11.9576682,25.9973828 12.8690132,25.9973828 C13.1241533,25.9973828 13.3428693,25.8881891 13.3428693,25.6696878 C13.3428693,25.3784855 13.2700778,25.3056139 13.1241533,25.0507905 C13.1241533,22.6112391 14.1450555,15.21977 15.1292489,13.3627938 C15.2751734,13.2535432 15.3479649,13.0715915 15.3479649,12.9259619 C15.3479649,12.3069509 14.1450555,11.5423103 13.3794643,11.5423103 M57.0235388,5.97144413 C57.2423117,5.97144413 57.3881793,5.86219351 57.3881793,5.60737015 C57.4610277,4.69698627 58.700532,2.40317813 59.2109831,1.82054608 C59.3203126,1.71129547 59.3933318,1.63853752 59.3933318,1.52934375 C59.3933318,0.946768544 57.9714788,0.182127935 57.0235388,0.182127935 C56.58605,0.182127935 56.367334,0.327700682 56.1485611,0.691774657 C55.674705,1.42009313 55.2372161,2.94937435 55.2372161,4.04159627 C55.2372161,5.13393188 56.367334,5.97144413 57.0235388,5.97144413 M76.9274661,14.4916334 C75.4692458,14.3095112 74.3391279,13.6905002 74.3391279,12.379777 C74.3391279,12.12484 74.3754952,11.8699598 74.4484574,11.6151364 C74.9224274,10.8141168 75.4328216,10.3042996 75.9431588,10.3042996 C76.7452881,10.3042996 77.0733905,11.3601994 77.0733905,12.7075289 C77.0733905,13.2535546 77.0368525,13.8725656 76.9274661,14.4916334 M73.9016391,19.6984313 C73.1360478,19.6984313 72.8444834,18.8245401 72.8444834,17.6229538 C72.8444834,16.4942393 73.0996236,15.0742086 73.5005744,13.7997508 C74.2297984,14.7828358 75.3598593,15.4382258 76.6359017,15.8388493 C76.0890833,17.8777772 75.068295,19.6984313 73.9016391,19.6984313 M47.3997288,26.3979608 C46.8892777,26.3979608 46.7070998,25.6696992 46.7070998,24.431734 C46.7070998,22.9389454 47.0352022,20.7542742 47.5091153,18.3147228 C47.8371608,18.4603524 48.2017443,18.533224 48.566214,18.6060388 C48.7121385,19.552688 48.7485627,20.5358298 48.7485627,21.4825359 C48.7485627,24.3225402 48.2382254,26.3979608 47.3997288,26.3979608 M40.3279125,26.3979608 C39.8174614,26.3979608 39.6352835,25.6696992 39.6352835,24.431734 C39.6352835,22.9389454 39.9633859,20.7542742 40.4372989,18.3147228 C40.7654013,18.4603524 41.1299279,18.533224 41.4944546,18.6060388 C41.6403221,19.552688 41.6768032,20.5358298 41.6768032,21.4825359 C41.6768032,24.3225402 41.166466,26.3979608 40.3279125,26.3979608 M32.8913419,13.035167 C31.9434588,15.7659208 30.4123332,19.6618818 29.4644502,19.6618818 C29.1362909,19.6618818 28.9541129,19.1522351 28.9541129,18.3511018 C28.9541129,15.8022998 30.5581439,10.4864787 32.5268152,10.4864787 C32.9277661,10.4864787 33.2195012,10.6684304 33.5111794,10.8504958 C33.2924065,11.5059426 33.0736905,12.2705833 32.8913419,13.035167 M83.1980068,10.4499292 C82.8333664,10.4499292 82.5781693,10.7049231 82.5781693,10.9233674 C82.5781693,11.068997 82.6511315,11.2145698 82.9063286,11.3238204 C83.0886204,11.5423216 83.1980068,11.797145 83.1980068,12.0155894 C83.1980068,13.1444176 81.2293354,14.1274458 79.1149103,14.4187618 C79.1512776,14.0181952 79.1878726,13.6177422 79.1878726,13.2535546 C79.1878726,12.6709794 79.1512776,12.12484 79.0418912,11.6878944 C78.4586486,9.39408622 75.7973482,8.62944561 74.5942681,8.62944561 C71.9426998,8.62944561 70.4357052,12.6101014 70.2130622,15.8275377 C69.0341132,18.6565715 68.0369436,19.7347534 67.5223379,19.7347534 C67.1578682,19.7347534 67.0484818,19.2249362 67.0484818,18.4239734 C67.0484818,16.1300516 68.2879292,11.46945 69.1264258,10.5591798 C69.1993311,10.4864787 69.2357553,10.4135502 69.2357553,10.3042996 C69.2357553,9.7581602 67.6681486,8.81139734 66.6109929,8.81139734 C66.355682,8.81139734 66.0641176,8.99351959 65.7724394,9.32121459 C64.3142191,11.1053192 62.1267749,15.292653 60.814479,18.2783438 C60.9602328,15.620348 62.0904076,11.2509488 62.8559988,10.3407354 C62.9289042,10.2679774 63.0016957,10.1951058 63.0016957,10.1222342 C63.0016957,9.61258745 61.5071081,8.81139734 60.5591681,8.81139734 C60.1582742,8.81139734 59.9029633,8.95714061 59.8301718,9.28483561 C59.2776052,10.5429229 58.7790489,12.737371 58.4718335,14.8223411 C57.1259022,18.4044766 56.0648196,19.7347534 55.5289285,19.7347534 C55.0913827,19.7347534 54.9090909,19.1157424 54.9090909,18.2054722 C54.9090909,15.7659208 56.0757469,11.3238204 56.8777623,10.4499292 C56.9507246,10.3772281 57.0235161,10.3042996 57.0235161,10.1951058 C57.0235161,9.68528856 55.4923335,8.92064795 54.5445643,8.92064795 C54.1434997,8.92064795 53.8883595,9.02989857 53.8153973,9.35759356 C53.1501433,10.7971779 52.611748,13.3100557 52.3917231,15.5363353 C51.5713817,16.6389025 50.4818995,17.0403786 49.3684002,17.0403786 L49.3318053,17.0403786 C49.0402409,16.2028664 48.7121385,15.4019036 48.3110738,14.7100778 C49.5141539,9.72178122 51.0817607,4.91549318 51.8473519,4.44216859 C51.9567384,4.36929696 51.9931626,4.33291798 51.9931626,4.22366737 C51.9931626,3.71402064 50.462037,2.94938003 49.4777297,2.94938003 C49.0766651,2.94938003 48.7849869,3.05863065 48.7121385,3.3862688 C47.6366,6.03892144 46.2969291,10.8826116 45.4008937,15.4220826 C44.5720153,16.6104814 43.4473611,17.0403786 42.2965839,17.0403786 L42.2600458,17.0403786 C41.9684814,16.2028664 41.6403221,15.4019036 41.2393144,14.7100778 C42.4423376,9.72178122 44.0099443,4.91549318 44.7755356,4.44216859 C44.884922,4.36929696 44.9213462,4.33291798 44.9213462,4.22366737 C44.9213462,3.71402064 43.3903344,2.94938003 42.4059703,2.94938003 C42.0049057,2.94938003 41.7131705,3.05863065 41.6403221,3.3862688 C40.5037162,6.18960999 39.0720742,11.4398921 38.1808194,16.1921232 C37.1069883,18.7504179 36.2211972,19.7347534 35.6984529,19.7347534 C35.2975021,19.7347534 35.1151534,19.0793634 35.1151534,18.1690932 C35.1151534,15.8022998 36.1724798,11.5059426 36.8651088,10.6684304 C37.4483514,10.2314848 35.7349909,9.13909234 34.6777215,9.13909234 C34.3131379,9.13909234 34.0579978,9.24834295 33.9850355,9.57603795 C33.9486682,9.68528856 33.875706,9.79453917 33.8392818,9.94028245 C32.9643041,9.24834295 31.6882617,8.59295295 30.813284,8.59295295 C28.7789353,8.59295295 27.2047266,12.0050736 26.5992881,15.1506613 C25.2835775,18.5809714 23.9955265,19.7347534 23.2676115,19.7347534 C22.7937554,19.7347534 22.6114067,19.2614857 22.6114067,18.4603524 C22.6114067,16.2392454 24.2519757,11.6515154 24.9446047,10.9961254 C25.0539342,10.8868748 25.0904154,10.8141168 25.0904154,10.6684304 C25.0904154,10.0129836 23.9968355,8.88426898 22.9395091,8.88426898 C22.7571605,8.88426898 22.5384445,8.92064795 22.3562665,8.99351959 C21.736429,9.28483561 21.1167622,9.50333684 20.3875952,9.53965897 C20.6427353,8.66582459 21.1167622,7.68268275 21.3719024,7.42785939 C21.4812888,7.35498776 21.517713,7.24573714 21.517713,7.17303603 C21.517713,6.69959776 20.2782087,6.00782879 19.4397691,6.00782879 C19.0751286,6.00782879 18.7835642,6.11702256 18.6376398,6.40833858 C18.1273025,7.31860878 17.6898706,8.48387287 17.6898706,9.4304652 C17.6898706,10.1222342 17.9085865,10.6684304 18.3460754,10.8868748 C17.4710977,12.8894806 15.3566726,16.312117 15.3566726,17.7685266 C15.3566726,18.6424178 16.158688,19.4070584 16.5961769,19.4070584 C16.7055064,19.4070584 16.8148929,19.3341868 16.8148929,19.1157424 C16.8148929,18.0962784 19.0022802,13.1079818 19.6583712,11.1416981 L19.9136821,11.1416981 C20.5333489,11.1416981 21.0802242,11.0325044 21.772967,10.8504958 C20.8979893,12.8531016 19.8042957,15.8751714 19.8042957,17.9141562 C19.8042957,18.3875944 19.8771441,18.7879906 19.9864736,19.1522351 C20.4239625,20.5358298 22.3196716,21.4096642 23.3405738,21.4096642 C24.3628419,21.4096642 25.429445,20.4914361 26.4084594,18.8178327 C26.4630957,19.1582603 26.54579,19.4570227 26.6573391,19.6984313 C27.05829,20.572152 28.5894725,21.4096642 29.4644502,21.4096642 C30.6675303,21.4096642 31.6518945,19.807625 32.453853,17.7685266 C32.5268152,18.533224 32.6726259,19.1522351 32.8183796,19.6255596 C33.2195012,20.572152 34.7140888,21.4096642 35.6256045,21.4096642 C36.2834029,21.4096642 36.9277129,20.9784597 37.555689,20.184659 C37.4169924,21.3497526 37.3385097,22.4104271 37.3385097,23.3030194 C37.3385097,24.3225402 37.4478392,25.1599956 37.6666121,25.7425708 C38.2498547,27.1989804 39.4529348,28 40.4736662,28 C42.3694323,28 43.280948,25.7061919 43.280948,22.75688 C43.280948,21.4460432 43.0985993,20.0261263 42.7340727,18.6060388 C43.4270432,18.5368051 44.2187005,18.318986 44.9605592,17.8521982 C44.619879,19.9344399 44.4102691,21.8431425 44.4102691,23.3030194 C44.4102691,24.3225402 44.5195986,25.1599956 44.7383715,25.7425708 C45.321671,27.1989804 46.5247511,28 47.5454826,28 C49.4411917,28 50.3527644,25.7061919 50.3527644,22.75688 C50.3527644,21.4460432 50.1703588,20.0261263 49.8058321,18.6060388 C50.5784806,18.5288472 51.4739469,18.267487 52.2860929,17.6815581 C52.2949713,18.5126472 52.3709499,19.1820772 52.575893,19.6255596 C53.049806,20.6450236 54.6175266,21.4096642 55.4923335,21.4096642 C56.3414728,21.4096642 57.2627206,20.5145709 58.1652442,18.8801885 C58.1901151,19.3064478 58.2519224,19.6496607 58.3353566,19.844004 C58.5540725,20.572152 59.866596,21.4096642 60.5228008,21.4096642 C60.7778841,21.4096642 60.9602328,21.3004136 60.9602328,21.0455902 C61.3977216,19.188614 64.0590789,14.1274458 65.5536665,11.9792104 C64.9704239,13.9818162 64.3871244,16.348496 64.3871244,18.0598994 C64.3871244,18.6060388 64.4600298,19.0793634 64.5693593,19.4070584 C64.9339997,20.6450236 66.5744549,21.4096642 67.5223379,21.4096642 C68.3941285,21.4096642 69.4267547,20.4125392 70.4172654,18.6017757 C70.4660397,18.7764516 70.5216436,18.936917 70.5841338,19.0793634 C71.2039144,20.2809496 72.9902371,21.4096642 74.0839308,21.4096642 C76.6359017,21.4096642 78.1669704,18.8245401 78.7868079,16.2028664 C79.0418912,16.2392454 79.2606641,16.2392454 79.479437,16.2392454 C82.4688398,16.2392454 84.875,15.1470234 84.875,13.3264262 C84.875,12.1613326 84.0729845,10.4499292 83.1980068,10.4499292" id="Graffino-white"></path>
        </g>
    </g>
</svg>