<?xml version="1.0" encoding="utf-8"?>
<!-- Generator: Adobe Illustrator 20.0.0, SVG Export Plug-In . SVG Version: 6.00 Build 0)  -->
<svg version="1.1" id="Layer_1" shape-rendering="geometricPrecision"
	 xmlns="http://www.w3.org/2000/svg" xmlns:xlink="http://www.w3.org/1999/xlink" x="0px" y="0px" width="48px" height="48px"
	 viewBox="0 0 48 48" style="enable-background:new 0 0 48 48;" xml:space="preserve">
<style type="text/css">
	.st0{fill:#FFFFFF;}
</style>
<g>
	<path class="st0" d="M43.9,4.1c-5.5-5.5-14.4-5.5-20,0c-5,5-5.5,12.8-1.5,18.3l-6.9,6.9L14.2,28L0,42.2L5.8,48L20,33.8l-1.3-1.3
		l6.9-6.9c5.5,4,13.3,3.5,18.3-1.5C49.4,18.6,49.4,9.6,43.9,4.1z M41.2,21.4c-4,4-10.6,4-14.6,0s-4-10.6,0-14.6s10.6-4,14.6,0
		C45.3,10.9,45.3,17.4,41.2,21.4z"/>
</g>
</svg>
