<svg fill="none" height="44" viewBox="0 0 26 44" width="26" xmlns="http://www.w3.org/2000/svg">
    <path clip-rule="evenodd"
        d="m12.1365.500251h2.0111l.0001-.000251c6.8489.95507 10.8181 4.57758 11.8523 10.9169v21.2343c-.0893.4135-.1553.7889-.217 1.1406-.1262.7183-.235 1.3375-.4902 1.9789-1.7419 4.3775-6.5239 8.1023-13.1033 7.6994-6.36026-.4006-11.580241-4.9293-12.068687-11.019-.1816545-2.2527-.12052168-4.6178-.0599715-6.9603.0300577-1.1629.0599715-2.3202.0599715-3.4554 0-1.2428-.0311496-2.4686-.0618152-3.6753-.05992249-2.3579-.1179955-4.6431.0618152-6.8405.216594-3.0704 1.847577-5.68662 3.750387-7.44781 2.06645-1.91059 4.78458-3.270798 8.2653-3.571539zm.8683 40.607449c4.3493 0 8.3716-2.4157 9.9495-6.2899v-.0006c.652-1.5096.7603-3.7228.7603-5.8889-.0417-1.7623-.0431-4.6566-.0446-7.6284-.0024-4.7522-.0048-9.7024-.172-10.5381-.8683-4.27713-5.1646-7.85061-10.546-7.79951-4.34934.04911-7.17594 1.8103-8.86215 4.12581-1.46745 2.01279-1.73928 4.4287-1.73928 7.5993v9.209c0 .8137-.03286 1.7145-.06685 2.646-.0816 2.2366-.16967 4.6505.17516 6.4628.86822 4.8317 5.59774 8.1025 10.54592 8.1025zm.9941-28.1004 2.3218 2.3675c.8411.8561 2.2419-.5311 1.4399-1.3889-1.1701-1.193-2.5343-2.6234-3.3633-3.4927-.3617-.3792-.6215-.65167-.7188-.75095-.2408-.24551-.5207-.28537-.8005-.20406-.1189.03985-.2392.0813-.3596.16261-.2002.08131-.3612.20406-.4409.4081-1.1564 1.1781-2.45172 2.4582-3.21422 3.2117-.31994.3162-.54608.5397-.6288.6241-.80049.8162.64103 2.2861 1.44152 1.4699l2.3217-2.3675v11.5441c0 1.1846 1.9606 1.2244 1.9606.0415 0-.7116.0077-2.4922.0164-4.5011.0113-2.5998.0242-5.5819.0242-7.1243z"
        fill="currentColor" fill-rule="evenodd" />
</svg>
