<?xml version="1.0" encoding="utf-8"?>
<!-- Generator: Adobe Illustrator 20.0.0, SVG Export Plug-In . SVG Version: 6.00 Build 0)  -->
<svg version="1.1" id="Layer_1" shape-rendering="geometricPrecision"
	 xmlns="http://www.w3.org/2000/svg" xmlns:xlink="http://www.w3.org/1999/xlink" x="0px" y="0px" width="28.2px" height="48px"
	 viewBox="0 0 28.2 48" style="enable-background:new 0 0 28.2 48;" xml:space="preserve">
<style type="text/css">
	.st0{fill:#FFFFFF;}
</style>
<g>
	<path class="st0" d="M5,31.6c0-1,0-2,0.2-3C5.3,27.8,5.6,26.9,6,26c0.4-0.9,0.9-1.7,1.6-2.4c0.7-0.8,1.6-1.5,2.8-2.1
		c0.6-0.3,1.4-0.7,2.3-1.3s1.9-1.1,2.8-1.8c0.9-0.7,1.7-1.5,2.4-2.3c0.7-0.9,1-1.8,1-2.9c0-1.5-0.5-2.6-1.6-3.4
		C16.3,9,15,8.5,13.6,8.5c-0.9,0-1.7,0.1-2.4,0.5c-0.7,0.3-1.3,0.7-1.9,1.2c-0.5,0.5-1,1-1.5,1.5c-0.4,0.6-0.8,1.1-1.1,1.5L0,8.5
		c1.2-2.7,3-4.8,5.5-6.3C8,0.8,10.8,0,14,0c1.7,0,3.4,0.2,5.1,0.7S22.3,2,23.7,3C25,4.1,26.1,5.5,27,7.2c0.8,1.7,1.3,3.7,1.3,6.1
		c0,2.5-0.5,4.6-1.5,6.4c-1.1,1.7-2.6,3.2-4.6,4.5c-0.9,0.6-1.9,1.2-2.9,1.6s-1.8,1-2.6,1.5c-0.8,0.5-1.5,1.1-1.9,1.8
		c-0.5,0.7-0.7,1.5-0.7,2.4H5z M5.2,48V38H14v10C14,48,5.2,48,5.2,48z"/>
</g>
</svg>
