<?xml version="1.0" encoding="utf-8"?>
<!-- Generator: Adobe Illustrator 20.0.0, SVG Export Plug-In . SVG Version: 6.00 Build 0)  -->
<svg version="1.1" id="Layer_1" xmlns="http://www.w3.org/2000/svg" xmlns:xlink="http://www.w3.org/1999/xlink" x="0px" y="0px"
	 width="59px" height="48px" viewBox="0 0 59 48" style="enable-background:new 0 0 59 48;" xml:space="preserve">
<style type="text/css">
	.st0{fill:#FFFFFF;}
</style>
<g id="Logo__x2014__FIXED">
	<g>
		<path class="st0" d="M18.5,48C40.8,48,53,29.5,53,13.5c0-0.5,0-1,0-1.6c2.4-1.7,4.4-3.9,6-6.3c-2.2,1-4.5,1.6-7,1.9
			c2.5-1.5,4.4-3.9,5.3-6.7c-2.3,1.4-4.9,2.4-7.7,2.9C47.5,1.5,44.3,0,40.9,0c-6.7,0-12.1,5.4-12.1,12.1c0,0.9,0.1,1.9,0.3,2.8
			c-10.1-0.5-19-5.3-25-12.7C3,4,2.5,6.1,2.5,8.3c0,4.2,2.1,7.9,5.4,10.1c-2-0.1-3.9-0.6-5.5-1.5c0,0,0,0.1,0,0.2
			c0,5.9,4.2,10.8,9.7,11.9c-1,0.3-2.1,0.4-3.2,0.4c-0.8,0-1.5-0.1-2.3-0.2c1.5,4.8,6,8.3,11.3,8.4c-4.2,3.3-9.4,5.2-15,5.2
			c-1,0-1.9,0-2.9-0.2C5.3,46,11.7,48,18.5,48"/>
	</g>
</g>
</svg>
